# xmcd
# Track frame offsets:
# 150
# 12960
# 29065
# 42397
# 60307
# 78500
# 91445
# 105152
# 122032
# 137192
#
# Disc length: 2028 seconds
# Revision: 0
# Processed by: cddbd v1.4PL0 Copyright (c) Steve Scherf et al.
# Submitted via: VisiTrax 2.9.5.180 - For more info visit www.synapsa.com
#
DISCID=7d07ea0a
DTITLE=Anni Filt - Giving it all
DYEAR=1900
DGENRE=
TTITLE0=In the pale moonlight
TTITLE1=Can't go on pretending
TTITLE2=Listen to the wind
TTITLE3=Roses and wine
TTITLE4=Giving it all
TTITLE5=Too late for loving
TTITLE6=Not the first time
TTITLE7=Give a dime
TTITLE8=You won't see me cry
TTITLE9=Sometimes-lately
EXTD=
EXTT0=
EXTT1=
EXTT2=
EXTT3=
EXTT4=
EXTT5=
EXTT6=
EXTT7=
EXTT8=
EXTT9=
PLAYORDER=
